<svg width="24" height="24" viewBox="0 0 24 24" fill="none" xmlns="http://www.w3.org/2000/svg">
<path d="M5.00019 19V8.09998L3.24219 4.23498L4.15819 3.80798L6.08519 8.04998H17.9152L19.8422 3.80798L20.7582 4.23498L19.0002 8.09998V19H5.00019ZM10.0002 12.5H14.0002C14.1422 12.5 14.2609 12.452 14.3562 12.356C14.4522 12.26 14.5002 12.141 14.5002 11.999C14.5002 11.857 14.4522 11.7383 14.3562 11.643C14.2609 11.5476 14.1422 11.5 14.0002 11.5H10.0002C9.85819 11.5 9.73952 11.548 9.64419 11.644C9.54819 11.74 9.50019 11.859 9.50019 12.001C9.50019 12.143 9.54819 12.2617 9.64419 12.357C9.74019 12.4523 9.85885 12.5 10.0002 12.5ZM6.00019 18H18.0002V9.04998H6.00019V18Z" fill="black"/>
</svg>
