<svg width="30" height="30" viewBox="0 0 30 30" fill="none" xmlns="http://www.w3.org/2000/svg">
<path d="M13.1252 23.4375H26.2502V25.3125H13.1252V23.4375ZM6.72207 24.375L4.30332 26.7938L5.6252 28.125L9.3752 24.375L5.6252 20.625L4.29395 21.9469L6.72207 24.375ZM13.1252 14.0625H26.2502V15.9375H13.1252V14.0625ZM6.72207 15L4.30332 17.4187L5.6252 18.75L9.3752 15L5.6252 11.25L4.29395 12.5719L6.72207 15ZM13.1252 4.6875H26.2502V6.5625H13.1252V4.6875ZM6.72207 5.625L4.30332 8.04375L5.6252 9.375L9.3752 5.625L5.6252 1.875L4.29395 3.19688L6.72207 5.625Z" fill="black"/>
</svg>
