<svg width="53" height="52" viewBox="0 0 53 52" fill="none" xmlns="http://www.w3.org/2000/svg">
<path fill-rule="evenodd" clip-rule="evenodd" d="M0 21.0966V34.4827C0 42.7392 0 46.8704 2.56628 49.4337C5.12964 52 9.2608 52 17.5173 52H35.0345C43.291 52 47.4222 52 49.9855 49.4337C52.5518 46.8704 52.5518 42.7392 52.5518 34.4827V21.0966L47.5681 26.0774C46.7553 26.8913 45.79 27.5371 44.7275 27.9779C43.665 28.4187 42.5261 28.646 41.3758 28.6466H11.176C8.85387 28.6445 6.62757 27.7204 4.98658 26.0774L0 21.0966ZM0.691932 13.5292L9.1119 21.9491C9.65929 22.4967 10.4018 22.8044 11.176 22.8046H41.3758C42.15 22.8044 42.8925 22.4967 43.4399 21.9491L51.8599 13.5292C51.6798 13.0072 51.4366 12.5091 51.1358 12.046C49.7228 9.86806 47.1974 8.74696 42.1495 6.50183L31.0202 1.55612C28.6845 0.516759 27.5167 0 26.2759 0C25.038 0 23.8673 0.516759 21.5316 1.55612L10.4023 6.50183C5.35153 8.74696 2.82904 9.86806 1.41598 12.046C1.11518 12.5091 0.872031 13.0072 0.691932 13.5292Z" fill="#07B5EC" fill-opacity="0.88"/>
</svg>
