<svg width="20" height="20" viewBox="0 0 20 20" fill="none" xmlns="http://www.w3.org/2000/svg">
<path d="M11.1111 6.38889C11.1111 5.72585 11.3745 5.08996 11.8433 4.62112C12.3122 4.15228 12.9481 3.88889 13.6111 3.88889C14.2742 3.88889 14.91 4.15228 15.3789 4.62112C15.8477 5.08996 16.1111 5.72585 16.1111 6.38889C16.1111 7.05193 15.8477 7.68782 15.3789 8.15666C14.91 8.6255 14.2742 8.88889 13.6111 8.88889C12.9481 8.88889 12.3122 8.6255 11.8433 8.15666C11.3745 7.68782 11.1111 7.05193 11.1111 6.38889ZM13.6111 5.27778C13.3164 5.27778 13.0338 5.39484 12.8254 5.60322C12.6171 5.81159 12.5 6.0942 12.5 6.38889C12.5 6.68357 12.6171 6.96619 12.8254 7.17456C13.0338 7.38294 13.3164 7.5 13.6111 7.5C13.9058 7.5 14.1884 7.38294 14.3968 7.17456C14.6052 6.96619 14.7222 6.68357 14.7222 6.38889C14.7222 6.0942 14.6052 5.81159 14.3968 5.60322C14.1884 5.39484 13.9058 5.27778 13.6111 5.27778ZM0 3.47222C0 2.55133 0.365822 1.66816 1.01699 1.01699C1.66816 0.365822 2.55133 0 3.47222 0H16.5278C17.4487 0 18.3318 0.365822 18.983 1.01699C19.6342 1.66816 20 2.55133 20 3.47222V16.5278C20 17.4487 19.6342 18.3318 18.983 18.983C18.3318 19.6342 17.4487 20 16.5278 20H3.47222C2.55133 20 1.66816 19.6342 1.01699 18.983C0.365822 18.3318 0 17.4487 0 16.5278V3.47222ZM3.47222 1.38889C2.91969 1.38889 2.38978 1.60838 1.99908 1.99908C1.60838 2.38978 1.38889 2.91969 1.38889 3.47222V16.5278C1.38889 16.8961 1.48444 17.2422 1.65222 17.5422L8.625 10.57C8.80556 10.3894 9.01992 10.2462 9.25585 10.1484C9.49177 10.0507 9.74464 10.0004 10 10.0004C10.2554 10.0004 10.5082 10.0507 10.7442 10.1484C10.9801 10.2462 11.1944 10.3894 11.375 10.57L18.3478 17.5422C18.521 17.2322 18.6117 16.8829 18.6111 16.5278V3.47222C18.6111 2.91969 18.3916 2.38978 18.0009 1.99908C17.6102 1.60838 17.0803 1.38889 16.5278 1.38889H3.47222ZM17.3033 18.4622L10.3928 11.5511C10.2886 11.447 10.1473 11.3885 10 11.3885C9.85269 11.3885 9.7114 11.447 9.60722 11.5511L2.69667 18.4622C2.93667 18.5583 3.19833 18.6111 3.47222 18.6111H16.5278C16.8017 18.6111 17.0633 18.5583 17.3033 18.4622Z" fill="#343434" fill-opacity="0.79"/>
</svg>
