<svg width="19" height="25" viewBox="0 0 19 25" fill="none" xmlns="http://www.w3.org/2000/svg">
<path fill-rule="evenodd" clip-rule="evenodd" d="M9.47755 24.4999L10.4217 23.4361C11.493 22.2092 12.4566 21.0451 13.3139 19.9379L14.0217 19.0042C16.9768 15.0227 18.4551 11.8626 18.4551 9.52693C18.4551 4.54141 14.4361 0.500029 9.47755 0.500029C4.51897 0.500029 0.500029 4.54141 0.500029 9.52693C0.500029 11.8626 1.97833 15.0227 4.93343 19.0042L5.64116 19.9379C6.86425 21.505 8.14389 23.0257 9.47755 24.4999Z" stroke="#343434" stroke-opacity="0.79" stroke-linecap="round" stroke-linejoin="round"/>
<path d="M9.47779 13.2182C11.5437 13.2182 13.2184 11.5434 13.2184 9.47754C13.2184 7.41165 11.5437 5.73691 9.47779 5.73691C7.41189 5.73691 5.73715 7.41165 5.73715 9.47754C5.73715 11.5434 7.41189 13.2182 9.47779 13.2182Z" stroke="#343434" stroke-opacity="0.79" stroke-linecap="round" stroke-linejoin="round"/>
</svg>
