<svg width="40" height="40" viewBox="0 0 40 40" fill="none" xmlns="http://www.w3.org/2000/svg">
<path d="M3.3335 18.3334L8.01183 13.0717C8.63729 12.3678 9.40476 11.8045 10.2637 11.4187C11.1226 11.0329 12.0536 10.8334 12.9952 10.8334H13.3335M3.3335 32.5H12.5002L19.1668 27.5C19.1668 27.5 20.5168 26.5884 22.5002 25C26.6668 21.6667 22.5002 16.39 18.3335 19.1667C14.9402 21.4284 11.6668 23.3334 11.6668 23.3334" stroke="black" stroke-width="1.5" stroke-linecap="round" stroke-linejoin="round"/>
<path d="M13.3335 22.5V11.6667C13.3335 10.7827 13.6847 9.93481 14.3098 9.30968C14.9349 8.68456 15.7828 8.33337 16.6668 8.33337H33.3335C34.2176 8.33337 35.0654 8.68456 35.6905 9.30968C36.3156 9.93481 36.6668 10.7827 36.6668 11.6667V21.6667C36.6668 22.5508 36.3156 23.3986 35.6905 24.0237C35.0654 24.6489 34.2176 25 33.3335 25H22.5002" stroke="black" stroke-width="1.5"/>
<path d="M32.5 16.6834L32.5167 16.665M17.5 16.6834L17.5167 16.665M25 20C24.1159 20 23.2681 19.6489 22.643 19.0237C22.0179 18.3986 21.6667 17.5508 21.6667 16.6667C21.6667 15.7827 22.0179 14.9348 22.643 14.3097C23.2681 13.6846 24.1159 13.3334 25 13.3334C25.8841 13.3334 26.7319 13.6846 27.357 14.3097C27.9821 14.9348 28.3333 15.7827 28.3333 16.6667C28.3333 17.5508 27.9821 18.3986 27.357 19.0237C26.7319 19.6489 25.8841 20 25 20Z" stroke="black" stroke-width="1.5" stroke-linecap="round" stroke-linejoin="round"/>
</svg>
