<svg width="24" height="24" viewBox="0 0 24 24" fill="none" xmlns="http://www.w3.org/2000/svg">
<path d="M17.5275 1.92C18.1515 1.91941 18.7692 2.05837 19.3446 2.32872C19.92 2.59907 20.4414 2.99537 20.8783 3.4944C21.7785 4.51813 22.2831 5.89743 22.2831 7.3344C22.2831 8.77137 21.7785 10.1507 20.8783 11.1744L12 21.2448L3.12172 11.1744C2.22153 10.1507 1.71695 8.77137 1.71695 7.3344C1.71695 5.89743 2.22153 4.51813 3.12172 3.4944C3.55885 2.99573 4.08031 2.59963 4.65563 2.32924C5.23095 2.05885 5.8486 1.91959 6.4725 1.91959C7.0964 1.91959 7.71405 2.05885 8.28936 2.32924C8.86468 2.59963 9.38614 2.99573 9.82328 3.4944L12 5.9904L14.1682 3.5136C14.6037 3.00863 15.1257 2.60723 15.7029 2.33342C16.2801 2.0596 16.9007 1.91899 17.5275 1.92ZM17.5275 2.57554e-06C16.6753 -0.000806436 15.8316 0.188984 15.0458 0.558244C14.26 0.927505 13.5479 1.4688 12.9512 2.1504L12 3.2256L11.0488 2.1504C10.4514 1.47003 9.73912 0.929675 8.95344 0.560825C8.16775 0.191975 7.32439 0.00201353 6.4725 0.00201353C5.62061 0.00201353 4.77724 0.191975 3.99156 0.560825C3.20587 0.929675 2.49359 1.47003 1.89624 2.1504C0.68094 3.53628 0 5.40131 0 7.344C0 9.2867 0.68094 11.1517 1.89624 12.5376L12 24L22.1038 12.5376C23.3191 11.1517 24 9.2867 24 7.344C24 5.40131 23.3191 3.53628 22.1038 2.1504C21.5066 1.46967 20.7943 0.92894 20.0087 0.559741C19.223 0.190543 18.3795 0.000265054 17.5275 2.57554e-06Z" fill="#07B5EC" fill-opacity="0.88"/>
</svg>
