<svg width="60" height="60" viewBox="0 0 60 60" fill="none" xmlns="http://www.w3.org/2000/svg">
<mask id="path-1-outside-1_223_510" maskUnits="userSpaceOnUse" x="9.5" y="37" width="36" height="19" fill="black">
<rect fill="white" x="9.5" y="37" width="36" height="19"/>
<path d="M12.5 52.5V50C12.5 44.4773 16.9771 40 22.5 40H32.5C38.0228 40 42.5 44.4773 42.5 50V52.5"/>
</mask>
<path d="M9.5 52.5C9.5 54.1569 10.8431 55.5 12.5 55.5C14.1569 55.5 15.5 54.1569 15.5 52.5H9.5ZM39.5 52.5C39.5 54.1569 40.8431 55.5 42.5 55.5C44.1569 55.5 45.5 54.1569 45.5 52.5H39.5ZM15.5 52.5V50H9.5V52.5H15.5ZM15.5 50C15.5 46.1341 18.634 43 22.5 43V37C15.3203 37 9.5 42.8204 9.5 50H15.5ZM22.5 43H32.5V37H22.5V43ZM32.5 43C36.3659 43 39.5 46.1341 39.5 50H45.5C45.5 42.8204 39.6796 37 32.5 37V43ZM39.5 50V52.5H45.5V50H39.5Z" fill="#07B5EC" fill-opacity="0.88" mask="url(#path-1-outside-1_223_510)"/>
<path d="M27.5 32.5C23.3579 32.5 20 29.1423 20 25C20 20.8579 23.3579 17.5 27.5 17.5C31.6423 17.5 35 20.8579 35 25C35 29.1423 31.6423 32.5 27.5 32.5Z" fill="#07B5EC" fill-opacity="0.88"/>
<path d="M19 25C19 29.6945 22.8056 33.5 27.5 33.5C32.1945 33.5 36 29.6945 36 25C36 20.3056 32.1945 16.5 27.5 16.5C22.8056 16.5 19 20.3056 19 25Z" stroke="#07B5EC" stroke-opacity="0.88" stroke-width="2" stroke-linecap="round"/>
<path d="M51 17.5V7.5H50H49V17.5H50H51Z" stroke="#07B5EC" stroke-opacity="0.88" stroke-width="2" stroke-linecap="round"/>
<path d="M50 30C51.3807 30 52.5 28.8807 52.5 27.5C52.5 26.1193 51.3807 25 50 25C48.6193 25 47.5 26.1193 47.5 27.5C47.5 28.8807 48.6193 30 50 30Z" fill="#07B5EC" fill-opacity="0.88"/>
</svg>
