<svg width="16" height="13" viewBox="0 0 16 13" fill="none" xmlns="http://www.w3.org/2000/svg">
<path d="M14.553 6.45777L14.5771 6.4L14.553 6.34223C13.334 3.42103 10.8274 1.55667 8 1.55667C5.17259 1.55667 2.666 3.42103 1.44702 6.34223L1.42292 6.4L1.44702 6.45776C2.66596 9.37887 5.16523 11.2433 8 11.2433C10.8348 11.2433 13.334 9.37887 14.553 6.45777ZM0.158356 6.4C1.41116 2.72564 4.45769 0.15 8 0.15C11.5423 0.15 14.5888 2.72564 15.8416 6.4C14.5888 10.0744 11.5423 12.65 8 12.65C4.45769 12.65 1.41116 10.0744 0.158356 6.4ZM9.96818 6.4C9.96818 5.16294 9.10807 4.11667 8 4.11667C6.89193 4.11667 6.03182 5.16294 6.03182 6.4C6.03182 7.63706 6.89193 8.68333 8 8.68333C9.10807 8.68333 9.96818 7.63706 9.96818 6.4ZM4.87727 6.4C4.87727 4.34319 6.3008 2.71 8 2.71C9.6992 2.71 11.1227 4.34319 11.1227 6.4C11.1227 8.45681 9.6992 10.09 8 10.09C6.3008 10.09 4.87727 8.45681 4.87727 6.4Z" fill="#7A7A7A" stroke="#FBFBFB" stroke-width="0.3"/>
</svg>
