<svg width="30" height="30" viewBox="0 0 30 30" fill="none" xmlns="http://www.w3.org/2000/svg">
<path d="M7.5 23.75H12.115V16.3938H17.885V23.75H22.5V12.5L15 6.82751L7.5 12.5V23.75ZM6.25 25V11.875L15 5.26501L23.75 11.875V25H16.635V17.6438H13.365V25H6.25Z" fill="#07B5EC" fill-opacity="0.97"/>
<path d="M12.115 15.8938H11.615V16.3938V23.25H8V12.7488L15 7.45442L22 12.7488V23.25H18.385V16.3938V15.8938H17.885H12.115ZM5.75 25V25.5H6.25H13.365H13.865V25V18.1438H16.135V25V25.5H16.635H23.75H24.25V25V11.875V11.6261L24.0514 11.4761L15.3014 4.86606L15 4.63838L14.6986 4.86606L5.94862 11.4761L5.75 11.6261V11.875V25Z" stroke="#07B5EC" stroke-opacity="0.88"/>
</svg>
