<svg width="24" height="24" viewBox="0 0 24 24" fill="none" xmlns="http://www.w3.org/2000/svg">
<g clip-path="url(#clip0_174_1226)">
<path d="M17.4851 23.154L11.2231 16.892C10.7231 17.318 10.1481 17.6477 9.49811 17.881C8.84811 18.1144 8.19477 18.231 7.53811 18.231C5.93677 18.231 4.58144 17.6767 3.47211 16.568C2.36277 15.4587 1.80811 14.1037 1.80811 12.503C1.80811 10.9024 2.36211 9.54671 3.47011 8.43604C4.57877 7.32471 5.93344 6.76904 7.53411 6.76904C9.13544 6.76904 10.4914 7.32371 11.6021 8.43304C12.7128 9.54238 13.2681 10.898 13.2681 12.5C13.2681 13.1947 13.1451 13.867 12.8991 14.517C12.6524 15.167 12.3291 15.723 11.9291 16.185L18.1911 22.446L17.4841 23.154H17.4851ZM7.53811 17.23C8.86477 17.23 9.98511 16.7734 10.8991 15.86C11.8124 14.9467 12.2691 13.8264 12.2691 12.499C12.2691 11.1724 11.8124 10.0524 10.8991 9.13904C9.98577 8.22571 8.86577 7.76904 7.5391 7.76904C6.21244 7.76904 5.09211 8.22571 4.17811 9.13904C3.26477 10.0524 2.80811 11.1724 2.80811 12.499C2.80811 13.8257 3.26477 14.9457 4.17811 15.859C5.09144 16.7724 6.21144 17.23 7.53811 17.23Z" fill="#343434" fill-opacity="0.55"/>
<path d="M10.5456 15.5065C11.3623 14.6898 11.7691 13.6979 11.7691 12.499C11.7691 11.301 11.3623 10.3094 10.5456 9.4926C9.72879 8.67584 8.73719 8.26904 7.5391 8.26904C6.34108 8.26904 5.34911 8.67581 4.53166 9.4926C4.53162 9.49264 4.53157 9.49268 4.53153 9.49273M10.5456 15.5065L10.8991 15.86C9.98511 16.7734 8.86477 17.23 7.53811 17.23C6.21144 17.23 5.09144 16.7724 4.17811 15.859C3.26477 14.9457 2.80811 13.8257 2.80811 12.499C2.80811 11.1724 3.26477 10.0524 4.17811 9.13904L4.53153 9.49273M10.5456 15.5065C9.7281 16.3233 8.73613 16.73 7.53811 16.73C6.3403 16.73 5.34861 16.3224 4.53166 15.5055C3.7149 14.6887 3.30811 13.6971 3.30811 12.499C3.30811 11.301 3.71486 10.3095 4.53153 9.49273M10.5456 15.5065L4.53153 9.49273M17.4851 23.654H18.6922L18.1915 23.1533L18.5449 22.7993L18.898 22.4458L18.5446 22.0925L12.597 16.1458C12.9067 15.7172 13.1625 15.2322 13.3666 14.6944L13.3667 14.694C13.6341 13.9875 13.7681 13.2552 13.7681 12.5C13.7681 10.7684 13.1622 9.28453 11.9554 8.07928C10.7489 6.87422 9.26496 6.26904 7.53411 6.26904C5.80355 6.26904 4.32065 6.8755 3.11613 8.08291L3.43082 8.39685L3.11613 8.08291C1.91251 9.28943 1.30811 10.773 1.30811 12.503C1.30811 14.2333 1.91334 15.7164 3.11855 16.9216L3.11866 16.9217C4.32394 18.1263 5.80734 18.731 7.53811 18.731C8.25529 18.731 8.96567 18.6034 9.66704 18.3516C10.2196 18.1533 10.7256 17.8892 11.1828 17.5589L16.7777 23.1538L16.2782 23.654H17.4841H17.4851Z" stroke="#343434" stroke-opacity="0.55"/>
</g>
<defs>
<clipPath id="clip0_174_1226">
<rect width="24" height="24" fill="white"/>
</clipPath>
</defs>
</svg>
