<svg width="21" height="21" viewBox="0 0 21 21" fill="none" xmlns="http://www.w3.org/2000/svg">
<path d="M20.205 8.44345H19.3832V8.39988H10.2017V12.5998H15.9672C15.126 15.0447 12.8659 16.7998 10.2017 16.7998C6.82136 16.7998 4.08068 13.979 4.08068 10.4998C4.08068 7.02072 6.82136 4.19994 10.2017 4.19994C11.762 4.19994 13.1816 4.80578 14.2625 5.79539L17.148 2.82551C15.326 1.07781 12.8888 0 10.2017 0C4.56781 0 0 4.70131 0 10.4998C0 16.2984 4.56781 20.9997 10.2017 20.9997C15.8356 20.9997 20.4034 16.2984 20.4034 10.4998C20.4034 9.79583 20.333 9.10862 20.205 8.44345Z" fill="#FFC107"/>
<path d="M1.17563 5.61269L4.5274 8.14263C5.43433 5.83162 7.63075 4.19994 10.2011 4.19994C11.7614 4.19994 13.181 4.80578 14.2619 5.79539L17.1474 2.82551C15.3254 1.07781 12.8882 0 10.2011 0C6.2826 0 2.88441 2.27689 1.17563 5.61269Z" fill="#FF3D00"/>
<path d="M10.2017 21C12.8368 21 15.2312 19.9621 17.0414 18.2742L13.884 15.5243C12.8598 16.3228 11.5866 16.8001 10.2017 16.8001C7.54827 16.8001 5.29522 15.0587 4.44644 12.6285L1.11967 15.2666C2.80805 18.6669 6.23684 21 10.2017 21Z" fill="#4CAF50"/>
<path d="M20.205 8.44345H19.3833V8.39988H10.2017V12.5998H15.9672C15.5632 13.7742 14.8292 14.7869 13.8825 15.5245C13.883 15.524 13.8835 15.524 13.884 15.5235L17.0415 18.2734C16.818 18.4824 20.4034 15.7498 20.4034 10.4998C20.4034 9.79583 20.333 9.10862 20.205 8.44345Z" fill="#7472E0"/>
</svg>
